<svg width="398.88502197265626px" height="123.68000183105468px" xmlns="http://www.w3.org/2000/svg" viewBox="50.55748901367187 13.159999084472659 398.88502197265626 123.68000183105468" style="background: rgba(210, 210, 203, 0);" preserveAspectRatio="xMidYMid"><defs><linearGradient id="editing-gradient-gradient" x1="0.5954044976882724" x2="0.4045955023117276" y1="0.009186408276168012" y2="0.990813591723832" gradientUnits="objectBoundingBox"><stop offset="0" stop-color="#ffffff"></stop><stop offset="1" stop-color="#78e4f5"></stop></linearGradient></defs><g><g transform="translate(105.82501983642578, 92.00000381469727)"><path d="M20 0.50L20 0.50L20 0.50Q14.90 0.50 11.20-1.60L11.20-1.60L11.20-1.60Q7.50-3.70 5.50-7.33L5.50-7.33L5.50-7.33Q3.50-10.95 3.50-15.60L3.50-15.60L3.50-15.60Q3.50-19.15 4.88-22.38L4.88-22.38L4.88-22.38Q6.25-25.60 8.63-28.10L8.63-28.10L8.63-28.10Q11-30.60 14.13-32.05L14.13-32.05L14.13-32.05Q17.25-33.50 20.75-33.50L20.75-33.50L20.75-33.50Q23.25-33.50 25-33.18L25-33.18L25-33.18Q26.75-32.85 28.13-32.33L28.13-32.33L28.13-32.33Q29.50-31.80 30.90-31.10L30.90-31.10L31.15-22.35L30.25-22.35L27.20-28.45L27.20-28.45Q25.30-29.80 23.88-30.40L23.88-30.40L23.88-30.40Q22.45-31 20.65-31L20.65-31L20.65-31Q17.05-31 14.23-29.20L14.23-29.20L14.23-29.20Q11.40-27.40 9.78-24.28L9.78-24.28L9.78-24.28Q8.15-21.15 8.15-17.10L8.15-17.10L8.15-17.10Q8.15-12.35 9.73-8.97L9.73-8.97L9.73-8.97Q11.30-5.60 13.98-3.83L13.98-3.83L13.98-3.83Q16.65-2.05 19.90-2.05L19.90-2.05L19.90-2.05Q22.65-2.05 24.53-2.83L24.53-2.83L24.53-2.83Q26.40-3.60 27.85-4.55L27.85-4.55L30.85-9.90L31.70-9.90L31.15-1.95L31.15-1.95Q29.70-1.20 28.18-0.65L28.18-0.65L28.18-0.65Q26.65-0.10 24.70 0.20L24.70 0.20L24.70 0.20Q22.75 0.50 20 0.50ZM61.95 0L39.55 0L39.55-0.80L43.10-2.45L43.10-25.55L39.55-27.20L39.55-28L51.40-28L51.40-27.20L47.35-25.55L47.35-2.50L58.20-2.50L61.15-9.60L61.95-9.60L61.95 0ZM83.20 0.50L83.20 0.50L83.20 0.50Q79.10 0.50 75.88-1.38L75.88-1.38L75.88-1.38Q72.65-3.25 70.80-6.53L70.80-6.53L70.80-6.53Q68.95-9.80 68.95-14L68.95-14L68.95-14Q68.95-18.20 70.80-21.50L70.80-21.50L70.80-21.50Q72.65-24.80 75.88-26.68L75.88-26.68L75.88-26.68Q79.10-28.55 83.20-28.55L83.20-28.55L83.20-28.55Q87.35-28.55 90.58-26.68L90.58-26.68L90.58-26.68Q93.80-24.80 95.68-21.50L95.68-21.50L95.68-21.50Q97.55-18.20 97.55-14L97.55-14L97.55-14Q97.55-9.80 95.68-6.53L95.68-6.53L95.68-6.53Q93.80-3.25 90.58-1.38L90.58-1.38L90.58-1.38Q87.35 0.50 83.20 0.50ZM84.05-2L84.05-2L84.05-2Q88.35-2 90.80-4.95L90.80-4.95L90.80-4.95Q93.25-7.90 93.25-12.75L93.25-12.75L93.25-12.75Q93.25-16.70 91.90-19.70L91.90-19.70L91.90-19.70Q90.55-22.70 88.13-24.38L88.13-24.38L88.13-24.38Q85.70-26.05 82.55-26.05L82.55-26.05L82.55-26.05Q78.25-26.05 75.75-23.15L75.75-23.15L75.75-23.15Q73.25-20.25 73.25-15.40L73.25-15.40L73.25-15.40Q73.25-11.40 74.63-8.38L74.63-8.38L74.63-8.38Q76-5.35 78.43-3.68L78.43-3.68L78.43-3.68Q80.85-2 84.05-2ZM119.60 0.50L119.60 0.50L119.60 0.50Q116.25 0.50 113.60-0.63L113.60-0.63L113.60-0.63Q110.95-1.75 109.43-4.23L109.43-4.23L109.43-4.23Q107.90-6.70 107.90-10.70L107.90-10.70L107.90-25.55L104.30-27.20L104.30-28L115.75-28L115.75-27.20L112.15-25.55L112.15-11.05L112.15-11.05Q112.15-6.10 114.35-4.13L114.35-4.13L114.35-4.13Q116.55-2.15 120.30-2.15L120.30-2.15L120.30-2.15Q122.50-2.15 124.30-3L124.30-3L124.30-3Q126.10-3.85 127.18-5.58L127.18-5.58L127.18-5.58Q128.25-7.30 128.25-10L128.25-10L128.25-25.65L123.95-27.20L123.95-28L134.65-28L134.65-27.20L131.10-25.60L131.10-10.70L131.10-10.70Q131.10-6.70 129.60-4.23L129.60-4.23L129.60-4.23Q128.10-1.75 125.53-0.63L125.53-0.63L125.53-0.63Q122.95 0.50 119.60 0.50ZM152.90 0L141.15 0L141.15-0.80L144.75-2.45L144.75-25.55L141.15-27.20L141.15-28L153.20-28L153.20-28Q158.20-28 161.68-26.40L161.68-26.40L161.68-26.40Q165.15-24.80 166.98-21.93L166.98-21.93L166.98-21.93Q168.80-19.05 168.80-15.25L168.80-15.25L168.80-15.25Q168.80-10.60 166.90-7.18L166.90-7.18L166.90-7.18Q165-3.75 161.43-1.88L161.43-1.88L161.43-1.88Q157.85 0 152.90 0L152.90 0ZM152.55-25.50L152.55-25.50L149-25.50L149-2.50L152.85-2.50L152.85-2.50Q158.45-2.50 161.43-5.70L161.43-5.70L161.43-5.70Q164.40-8.90 164.40-14.15L164.40-14.15L164.40-14.15Q164.40-19.70 161.35-22.60L161.35-22.60L161.35-22.60Q158.30-25.50 152.55-25.50ZM187.75 0.25L186 0.25L176.80-30.40L173.05-32.20L173.05-33L185.75-33L185.75-32.20L181.50-30.35L187.75-8.70L188-8.70L196.65-33.25L198.50-33.25L207.35-8.70L207.65-8.70L213.80-30.30L209.55-32.20L209.55-33L220.60-33L220.60-32.20L217.25-30.35L207.95 0.25L206.20 0.25L197.10-24.25L196.85-24.25L187.75 0.25ZM232.30 0L223.00 0L223.00-0.80L225.55-2.10L236.65-28.25L238.75-28.25L249.80-2.15L252.70-0.80L252.70 0L241.80 0L241.80-0.80L245.30-2.20L242.15-9.80L231.75-9.80L228.60-2.10L232.30-0.80L232.30 0ZM236.90-22.40L232.80-12.30L241.10-12.30L236.90-22.40ZM276.65 0L264.60 0L264.60-0.80L268.50-2.45L268.50-13.35L259.35-25.70L256.10-27.20L256.10-28L267.35-28L267.35-27.20L264.35-25.70L264.35-25.50L271.60-15.85L278.20-25.45L278.20-25.60L275.05-27.20L275.05-28L284.85-28L284.85-27.20L281.55-25.65L272.75-13.15L272.75-2.45L276.65-0.80L276.65 0Z" fill="url(#editing-gradient-gradient)"></path></g></g><style>text {
  font-size: 64px;
  font-family: Arial Black;
  dominant-baseline: central;
  text-anchor: middle;
}</style></svg>